{
  "accessors": [
    {
      "bufferView": 2,
      "componentType": 5126,
      "count": 3617,
      "max": [
        0.2758707106113434,
        0.26378512382507324,
        0.7637888789176941
      ],
      "min": [
        -0.2758707106113434,
        -0.24441930651664734,
        -9.04973057913594e-05
      ],
      "type": "VEC3"
    },
    {
      "bufferView": 2,
      "byteOffset": 43404,
      "componentType": 5126,
      "count": 3617,
      "max": [
        0.9999971985816956,
        0.999815046787262,
        0.9999696016311646
      ],
      "min": [
        -0.9999971389770508,
        -0.9997655153274536,
        -0.9999996423721313
      ],
      "type": "VEC3"
    },
    {
      "bufferView": 3,
      "componentType": 5126,
      "count": 3617,
      "max": [
        1.0,
        0.9996834397315979,
        0.9990697503089905,
        1.0
      ],
      "min": [
        -1.0,
        -0.9999996423721313,
        -0.9988674521446228,
        -1.0
      ],
      "type": "VEC4"
    },
    {
      "bufferView": 1,
      "componentType": 5126,
      "count": 3617,
      "max": [
        0.9984992146492004,
        0.9765426516532898
      ],
      "min": [
        0.0014980026753619313,
        0.0015050284564495087
      ],
      "type": "VEC2"
    },
    {
      "bufferView": 0,
      "componentType": 5125,
      "count": 18348,
      "type": "SCALAR"
    }
  ],
  "asset": {
    "extras": {
      "author": "Taufiq K (https://sketchfab.com/fqrhmn)",
      "license": "CC-BY-4.0 (http://creativecommons.org/licenses/by/4.0/)",
      "source": "https://sketchfab.com/3d-models/rattan-dining-chair-1f028b3d5f8b497d8c7e20149e6ef209",
      "title": "Rattan Dining Chair"
    },
    "generator": "Sketchfab-16.82.0",
    "version": "2.0"
  },
  "bufferViews": [
    {
      "buffer": 0,
      "byteLength": 73392,
      "name": "floatBufferViews",
      "target": 34963
    },
    {
      "buffer": 0,
      "byteLength": 28936,
      "byteOffset": 73392,
      "byteStride": 8,
      "name": "floatBufferViews",
      "target": 34962
    },
    {
      "buffer": 0,
      "byteLength": 86808,
      "byteOffset": 102328,
      "byteStride": 12,
      "name": "floatBufferViews",
      "target": 34962
    },
    {
      "buffer": 0,
      "byteLength": 57872,
      "byteOffset": 189136,
      "byteStride": 16,
      "name": "floatBufferViews",
      "target": 34962
    }
  ],
  "buffers": [
    {
      "byteLength": 247008,
      "uri": "scene.bin"
    }
  ],
  "images": [
    {
      "uri": "textures/Rattan_Dining_Chair_baseColor.png"
    },
    {
      "uri": "textures/Rattan_Dining_Chair_metallicRoughness.png"
    },
    {
      "uri": "textures/Rattan_Dining_Chair_normal.png"
    }
  ],
  "materials": [
    {
      "alphaMode": "BLEND",
      "doubleSided": true,
      "name": "Rattan_Dining_Chair",
      "normalTexture": {
        "index": 2
      },
      "pbrMetallicRoughness": {
        "baseColorTexture": {
          "index": 0
        },
        "metallicRoughnessTexture": {
          "index": 1
        }
      }
    }
  ],
  "meshes": [
    {
      "name": "Rattan_Dining_Chair_Rattan_Dining_Chair_0",
      "primitives": [
        {
          "attributes": {
            "NORMAL": 1,
            "POSITION": 0,
            "TANGENT": 2,
            "TEXCOORD_0": 3
          },
          "indices": 4,
          "material": 0,
          "mode": 4
        }
      ]
    }
  ],
  "nodes": [
    {
      "children": [
        1
      ],
      "matrix": [
        1.0,
        0.0,
        0.0,
        0.0,
        0.0,
        2.220446049250313e-16,
        -1.0,
        0.0,
        0.0,
        1.0,
        2.220446049250313e-16,
        0.0,
        0.0,
        0.0,
        0.0,
        1.0
      ],
      "name": "Sketchfab_model"
    },
    {
      "children": [
        2
      ],
      "matrix": [
        0.009999999776482582,
        0.0,
        0.0,
        0.0,
        0.0,
        0.0,
        0.009999999776482582,
        0.0,
        0.0,
        -0.009999999776482582,
        0.0,
        0.0,
        0.0,
        0.0,
        0.0,
        1.0
      ],
      "name": "low poly.fbx"
    },
    {
      "children": [
        3
      ],
      "name": "RootNode"
    },
    {
      "children": [
        4
      ],
      "matrix": [
        100.0,
        0.0,
        0.0,
        0.0,
        0.0,
        -1.629206793918314e-05,
        -99.99999999999868,
        0.0,
        0.0,
        99.99999999999868,
        -1.629206793918314e-05,
        0.0,
        0.0,
        0.0,
        -0.18076908588409424,
        1.0
      ],
      "name": "Rattan_Dining_Chair"
    },
    {
      "mesh": 0,
      "name": "Rattan_Dining_Chair_Rattan_Dining_Chair_0"
    }
  ],
  "samplers": [
    {
      "magFilter": 9729,
      "minFilter": 9987,
      "wrapS": 10497,
      "wrapT": 10497
    }
  ],
  "scene": 0,
  "scenes": [
    {
      "name": "Sketchfab_Scene",
      "nodes": [
        0
      ]
    }
  ],
  "textures": [
    {
      "sampler": 0,
      "source": 0
    },
    {
      "sampler": 0,
      "source": 1
    },
    {
      "sampler": 0,
      "source": 2
    }
  ]
}
